<svg width="43" height="42" fill="none" xmlns="http://www.w3.org/2000/svg"><path d="m30.893 19.857 3.664-3.664-8.75-8.75-3.664 3.664-9.66-9.637a4.675 4.675 0 0 0-6.603 0L1.447 5.903a4.675 4.675 0 0 0 0 6.604l9.636 9.636L0 33.25V42h8.75l11.107-11.107 9.636 9.637c2.217 2.217 5.204 1.4 6.604 0l4.433-4.433a4.676 4.676 0 0 0 0-6.604l-9.637-9.636ZM14.42 18.83 4.76 9.193 9.17 4.76l2.963 2.963L9.38 10.5l3.29 3.29 2.777-2.777 3.383 3.384-4.41 4.433Zm18.387 18.41-9.637-9.637 4.433-4.433 3.384 3.383-2.777 2.777 3.29 3.29 2.777-2.777 2.963 2.964-4.433 4.433Zm8.516-27.813a2.324 2.324 0 0 0 0-3.29l-5.46-5.46C34.767-.42 33.25 0 32.573.677l-4.27 4.27 8.75 8.75 4.27-4.27Z" fill="#434343"/></svg>