<svg width="56" height="56" fill="none" xmlns="http://www.w3.org/2000/svg"><path d="M44.312 4.667H21.023a4.687 4.687 0 0 0-4.69 4.69V22.51L5.362 33.34A2.333 2.333 0 0 0 7 37.333V49a2.333 2.333 0 0 0 2.333 2.333h37.334A2.333 2.333 0 0 0 49 49V9.354a4.685 4.685 0 0 0-4.688-4.687ZM25.485 35.259v11.408H11.667V33.675l6.97-6.881 6.848 7.007v1.458ZM30.333 21h-4.666v-4.667h4.666V21Zm9.334 18.667H35V35h4.667v4.667Zm0-9.334H35v-4.666h4.667v4.666Zm0-9.333H35v-4.667h4.667V21Z" fill="#434343"/><path d="M16.333 35H21v4.667h-4.667V35Z" fill="#434343"/></svg>