<svg width="48" height="44" fill="none" xmlns="http://www.w3.org/2000/svg"><path d="m28.16 29.401 4.95-4.949L47.1 38.443l-4.949 4.949-13.99-13.99Zm8.673-12.068c4.504 0 8.167-3.663 8.167-8.166 0-1.354-.373-2.614-.957-3.734l-6.3 6.3-3.476-3.476 6.3-6.3C39.447 1.373 38.187 1 36.833 1c-4.503 0-8.166 3.663-8.166 8.167 0 .956.186 1.866.49 2.706L24.84 16.19l-4.153-4.153 1.656-1.657-3.29-3.29L24 2.143a7 7 0 0 0-9.893 0l-8.26 8.26 3.29 3.29h-6.58L.9 15.35l8.26 8.26 1.657-1.657V15.35l3.29 3.29 1.656-1.657 4.154 4.154-17.29 17.29 4.946 4.946 26.554-26.53c.84.304 1.75.49 2.706.49Z" fill="#434343"/></svg>