<svg width="228" height="228" viewBox="0 0 228 228" fill="none" xmlns="http://www.w3.org/2000/svg">
<g filter="url(#filter0_d_22_805)">
<circle cx="114" cy="106" r="84" fill="white"/>
</g>
<path d="M73.976 144.192C73.976 144.757 73.8427 145.291 73.576 145.792C73.3093 146.293 72.8827 146.704 72.296 147.024C71.7093 147.333 70.9573 147.488 70.04 147.488H68.024V152H66.2V140.88H70.04C70.8933 140.88 71.6133 141.029 72.2 141.328C72.7973 141.616 73.24 142.011 73.528 142.512C73.8267 143.013 73.976 143.573 73.976 144.192ZM70.04 146C70.7333 146 71.2507 145.845 71.592 145.536C71.9333 145.216 72.104 144.768 72.104 144.192C72.104 142.976 71.416 142.368 70.04 142.368H68.024V146H70.04ZM77.5396 144.464C77.8063 144.016 78.1583 143.669 78.5956 143.424C79.0436 143.168 79.5716 143.04 80.1796 143.04V144.928H79.7156C79.001 144.928 78.457 145.109 78.0836 145.472C77.721 145.835 77.5396 146.464 77.5396 147.36V152H75.7156V143.184H77.5396V144.464ZM85.6803 152.144C84.8483 152.144 84.0963 151.957 83.4243 151.584C82.7523 151.2 82.2243 150.667 81.8403 149.984C81.4563 149.291 81.2643 148.491 81.2643 147.584C81.2643 146.688 81.4616 145.893 81.8563 145.2C82.2509 144.507 82.7896 143.973 83.4723 143.6C84.1549 143.227 84.9176 143.04 85.7603 143.04C86.6029 143.04 87.3656 143.227 88.0483 143.6C88.7309 143.973 89.2696 144.507 89.6643 145.2C90.0589 145.893 90.2563 146.688 90.2563 147.584C90.2563 148.48 90.0536 149.275 89.6483 149.968C89.2429 150.661 88.6883 151.2 87.9843 151.584C87.2909 151.957 86.5229 152.144 85.6803 152.144ZM85.6803 150.56C86.1496 150.56 86.5869 150.448 86.9923 150.224C87.4083 150 87.7443 149.664 88.0003 149.216C88.2563 148.768 88.3843 148.224 88.3843 147.584C88.3843 146.944 88.2616 146.405 88.0163 145.968C87.7709 145.52 87.4456 145.184 87.0403 144.96C86.6349 144.736 86.1976 144.624 85.7283 144.624C85.2589 144.624 84.8216 144.736 84.4163 144.96C84.0216 145.184 83.7069 145.52 83.4723 145.968C83.2376 146.405 83.1203 146.944 83.1203 147.584C83.1203 148.533 83.3603 149.269 83.8403 149.792C84.3309 150.304 84.9443 150.56 85.6803 150.56ZM98.0396 140.16V152H96.2156V140.16H98.0396ZM101.362 142.016C101.032 142.016 100.754 141.904 100.53 141.68C100.306 141.456 100.194 141.179 100.194 140.848C100.194 140.517 100.306 140.24 100.53 140.016C100.754 139.792 101.032 139.68 101.362 139.68C101.682 139.68 101.954 139.792 102.178 140.016C102.402 140.24 102.514 140.517 102.514 140.848C102.514 141.179 102.402 141.456 102.178 141.68C101.954 141.904 101.682 142.016 101.362 142.016ZM102.258 143.184V152H100.434V143.184H102.258ZM104.045 147.584C104.045 146.677 104.226 145.883 104.589 145.2C104.962 144.507 105.474 143.973 106.125 143.6C106.776 143.227 107.522 143.04 108.365 143.04C109.432 143.04 110.312 143.296 111.005 143.808C111.709 144.309 112.184 145.029 112.429 145.968H110.461C110.301 145.531 110.045 145.189 109.693 144.944C109.341 144.699 108.898 144.576 108.365 144.576C107.618 144.576 107.021 144.843 106.573 145.376C106.136 145.899 105.917 146.635 105.917 147.584C105.917 148.533 106.136 149.275 106.573 149.808C107.021 150.341 107.618 150.608 108.365 150.608C109.421 150.608 110.12 150.144 110.461 149.216H112.429C112.173 150.112 111.693 150.827 110.989 151.36C110.285 151.883 109.41 152.144 108.365 152.144C107.522 152.144 106.776 151.957 106.125 151.584C105.474 151.2 104.962 150.667 104.589 149.984C104.226 149.291 104.045 148.491 104.045 147.584ZM122.327 147.376C122.327 147.707 122.306 148.005 122.263 148.272H115.527C115.58 148.976 115.842 149.541 116.311 149.968C116.78 150.395 117.356 150.608 118.039 150.608C119.02 150.608 119.714 150.197 120.119 149.376H122.087C121.82 150.187 121.335 150.853 120.631 151.376C119.938 151.888 119.074 152.144 118.039 152.144C117.196 152.144 116.439 151.957 115.767 151.584C115.106 151.2 114.583 150.667 114.199 149.984C113.826 149.291 113.639 148.491 113.639 147.584C113.639 146.677 113.82 145.883 114.183 145.2C114.556 144.507 115.074 143.973 115.735 143.6C116.407 143.227 117.175 143.04 118.039 143.04C118.871 143.04 119.612 143.221 120.263 143.584C120.914 143.947 121.42 144.459 121.783 145.12C122.146 145.771 122.327 146.523 122.327 147.376ZM120.423 146.8C120.412 146.128 120.172 145.589 119.703 145.184C119.234 144.779 118.652 144.576 117.959 144.576C117.33 144.576 116.791 144.779 116.343 145.184C115.895 145.579 115.628 146.117 115.543 146.8H120.423ZM128.57 143.04C129.263 143.04 129.882 143.184 130.426 143.472C130.981 143.76 131.413 144.187 131.722 144.752C132.031 145.317 132.186 146 132.186 146.8V152H130.378V147.072C130.378 146.283 130.181 145.68 129.786 145.264C129.391 144.837 128.853 144.624 128.17 144.624C127.487 144.624 126.943 144.837 126.538 145.264C126.143 145.68 125.946 146.283 125.946 147.072V152H124.122V143.184H125.946V144.192C126.245 143.829 126.623 143.547 127.082 143.344C127.551 143.141 128.047 143.04 128.57 143.04ZM137.713 152.144C137.019 152.144 136.395 152.021 135.841 151.776C135.297 151.52 134.865 151.179 134.545 150.752C134.225 150.315 134.054 149.829 134.033 149.296H135.921C135.953 149.669 136.129 149.984 136.449 150.24C136.779 150.485 137.19 150.608 137.681 150.608C138.193 150.608 138.587 150.512 138.865 150.32C139.153 150.117 139.297 149.861 139.297 149.552C139.297 149.221 139.137 148.976 138.817 148.816C138.507 148.656 138.011 148.48 137.329 148.288C136.667 148.107 136.129 147.931 135.713 147.76C135.297 147.589 134.934 147.328 134.625 146.976C134.326 146.624 134.177 146.16 134.177 145.584C134.177 145.115 134.315 144.688 134.593 144.304C134.87 143.909 135.265 143.6 135.777 143.376C136.299 143.152 136.897 143.04 137.569 143.04C138.571 143.04 139.377 143.296 139.985 143.808C140.603 144.309 140.934 144.997 140.977 145.872H139.153C139.121 145.477 138.961 145.163 138.673 144.928C138.385 144.693 137.995 144.576 137.505 144.576C137.025 144.576 136.657 144.667 136.401 144.848C136.145 145.029 136.017 145.269 136.017 145.568C136.017 145.803 136.102 146 136.273 146.16C136.443 146.32 136.651 146.448 136.897 146.544C137.142 146.629 137.505 146.741 137.985 146.88C138.625 147.051 139.147 147.227 139.553 147.408C139.969 147.579 140.326 147.835 140.625 148.176C140.923 148.517 141.078 148.971 141.089 149.536C141.089 150.037 140.95 150.485 140.673 150.88C140.395 151.275 140.001 151.584 139.489 151.808C138.987 152.032 138.395 152.144 137.713 152.144ZM151.139 147.376C151.139 147.707 151.118 148.005 151.075 148.272H144.339C144.393 148.976 144.654 149.541 145.123 149.968C145.593 150.395 146.169 150.608 146.851 150.608C147.833 150.608 148.526 150.197 148.931 149.376H150.899C150.633 150.187 150.147 150.853 149.443 151.376C148.75 151.888 147.886 152.144 146.851 152.144C146.009 152.144 145.251 151.957 144.579 151.584C143.918 151.2 143.395 150.667 143.011 149.984C142.638 149.291 142.451 148.491 142.451 147.584C142.451 146.677 142.633 145.883 142.995 145.2C143.369 144.507 143.886 143.973 144.547 143.6C145.219 143.227 145.987 143.04 146.851 143.04C147.683 143.04 148.425 143.221 149.075 143.584C149.726 143.947 150.233 144.459 150.595 145.12C150.958 145.771 151.139 146.523 151.139 147.376ZM149.235 146.8C149.225 146.128 148.985 145.589 148.515 145.184C148.046 144.779 147.465 144.576 146.771 144.576C146.142 144.576 145.603 144.779 145.155 145.184C144.707 145.579 144.441 146.117 144.355 146.8H149.235ZM152.326 147.552C152.326 146.667 152.508 145.883 152.87 145.2C153.244 144.517 153.745 143.989 154.374 143.616C155.014 143.232 155.724 143.04 156.502 143.04C157.078 143.04 157.644 143.168 158.198 143.424C158.764 143.669 159.212 144 159.542 144.416V140.16H161.382V152H159.542V150.672C159.244 151.099 158.828 151.451 158.294 151.728C157.772 152.005 157.169 152.144 156.486 152.144C155.718 152.144 155.014 151.952 154.374 151.568C153.745 151.173 153.244 150.629 152.87 149.936C152.508 149.232 152.326 148.437 152.326 147.552ZM159.542 147.584C159.542 146.976 159.414 146.448 159.158 146C158.913 145.552 158.588 145.211 158.182 144.976C157.777 144.741 157.34 144.624 156.87 144.624C156.401 144.624 155.964 144.741 155.558 144.976C155.153 145.2 154.822 145.536 154.566 145.984C154.321 146.421 154.198 146.944 154.198 147.552C154.198 148.16 154.321 148.693 154.566 149.152C154.822 149.611 155.153 149.963 155.558 150.208C155.974 150.443 156.412 150.56 156.87 150.56C157.34 150.56 157.777 150.443 158.182 150.208C158.588 149.973 158.913 149.632 159.158 149.184C159.414 148.725 159.542 148.192 159.542 147.584Z" fill="#056088"/>
<path d="M103.225 114.588L76.4873 87.9925C76.3331 87.8392 76.2107 87.6569 76.1272 87.4561C76.0437 87.2553 76.0007 87.04 76.0007 86.8225C76.0007 86.6051 76.0437 86.3897 76.1272 86.1889C76.2107 85.9882 76.3331 85.8058 76.4873 85.6525L83.2373 78.895C83.8823 78.25 84.9248 78.25 85.5698 78.895L103.172 96.3925C103.817 97.0375 104.867 97.03 105.512 96.385L144.407 57.115C145.052 56.4625 146.102 56.4625 146.755 57.1075L153.512 63.865C154.157 64.51 154.157 65.5525 153.52 66.1975L111.145 108.955L111.152 108.963L105.565 114.58C104.92 115.225 103.87 115.225 103.225 114.588Z" fill="#056088"/>
<defs>
<filter id="filter0_d_22_805" x="0" y="0" width="228" height="228" filterUnits="userSpaceOnUse" color-interpolation-filters="sRGB">
<feFlood flood-opacity="0" result="BackgroundImageFix"/>
<feColorMatrix in="SourceAlpha" type="matrix" values="0 0 0 0 0 0 0 0 0 0 0 0 0 0 0 0 0 0 127 0" result="hardAlpha"/>
<feOffset dy="8"/>
<feGaussianBlur stdDeviation="15"/>
<feComposite in2="hardAlpha" operator="out"/>
<feColorMatrix type="matrix" values="0 0 0 0 0.0196078 0 0 0 0 0.376471 0 0 0 0 0.533333 0 0 0 0.15 0"/>
<feBlend mode="normal" in2="BackgroundImageFix" result="effect1_dropShadow_22_805"/>
<feBlend mode="normal" in="SourceGraphic" in2="effect1_dropShadow_22_805" result="shape"/>
</filter>
</defs>
</svg>
