<svg width="228" height="228" fill="none" xmlns="http://www.w3.org/2000/svg"><g filter="url(#a)"><circle cx="114" cy="106" r="84" fill="#fff"/></g><path d="M73.976 144.192c0 .565-.133 1.099-.4 1.6-.267.501-.693.912-1.28 1.232-.587.309-1.339.464-2.256.464h-2.016V152H66.2v-11.12h3.84c.853 0 1.573.149 2.16.448.597.288 1.04.683 1.328 1.184.299.501.448 1.061.448 1.68ZM70.04 146c.693 0 1.21-.155 1.552-.464.341-.32.512-.768.512-1.344 0-1.216-.688-1.824-2.064-1.824h-2.016V146h2.016Zm7.5-1.536a2.82 2.82 0 0 1 1.056-1.04c.448-.256.976-.384 1.584-.384v1.888h-.464c-.715 0-1.259.181-1.632.544-.363.363-.544.992-.544 1.888V152h-1.824v-8.816h1.824v1.28Zm8.14 7.68c-.832 0-1.584-.187-2.256-.56a4.149 4.149 0 0 1-1.584-1.6c-.384-.693-.576-1.493-.576-2.4 0-.896.198-1.691.592-2.384a4.088 4.088 0 0 1 1.616-1.6c.683-.373 1.446-.56 2.288-.56.843 0 1.606.187 2.288.56a4.09 4.09 0 0 1 1.616 1.6c.395.693.592 1.488.592 2.384 0 .896-.202 1.691-.608 2.384a4.254 4.254 0 0 1-1.664 1.616 4.785 4.785 0 0 1-2.304.56Zm0-1.584c.47 0 .907-.112 1.312-.336.416-.224.752-.56 1.008-1.008.256-.448.384-.992.384-1.632 0-.64-.122-1.179-.368-1.616a2.473 2.473 0 0 0-.976-1.008 2.67 2.67 0 0 0-1.312-.336c-.47 0-.906.112-1.312.336-.394.224-.71.56-.944 1.008-.234.437-.352.976-.352 1.616 0 .949.24 1.685.72 2.208.49.512 1.104.768 1.84.768Zm12.36-10.4V152h-1.824v-11.84h1.824Zm3.322 1.856c-.33 0-.608-.112-.832-.336a1.13 1.13 0 0 1-.336-.832c0-.331.112-.608.336-.832.224-.224.502-.336.832-.336.32 0 .592.112.816.336.224.224.336.501.336.832 0 .331-.112.608-.336.832a1.11 1.11 0 0 1-.816.336Zm.896 1.168V152h-1.824v-8.816h1.824Zm1.787 4.4c0-.907.181-1.701.544-2.384a3.963 3.963 0 0 1 1.536-1.6c.651-.373 1.397-.56 2.24-.56 1.067 0 1.947.256 2.64.768.704.501 1.179 1.221 1.424 2.16h-1.968a2.081 2.081 0 0 0-.768-1.024c-.352-.245-.795-.368-1.328-.368-.747 0-1.344.267-1.792.8-.437.523-.656 1.259-.656 2.208 0 .949.219 1.691.656 2.224.448.533 1.045.8 1.792.8 1.056 0 1.755-.464 2.096-1.392h1.968c-.256.896-.736 1.611-1.44 2.144-.704.523-1.579.784-2.624.784-.843 0-1.589-.187-2.24-.56a4.099 4.099 0 0 1-1.536-1.6c-.363-.693-.544-1.493-.544-2.4Zm18.282-.208c0 .331-.021.629-.064.896h-6.736c.053.704.315 1.269.784 1.696.469.427 1.045.64 1.728.64.981 0 1.675-.411 2.08-1.232h1.968a4 4 0 0 1-1.456 2c-.693.512-1.557.768-2.592.768-.843 0-1.6-.187-2.272-.56a4.185 4.185 0 0 1-1.568-1.6c-.373-.693-.56-1.493-.56-2.4 0-.907.181-1.701.544-2.384a3.936 3.936 0 0 1 1.552-1.6c.672-.373 1.44-.56 2.304-.56.832 0 1.573.181 2.224.544a3.835 3.835 0 0 1 1.52 1.536c.363.651.544 1.403.544 2.256Zm-1.904-.576c-.011-.672-.251-1.211-.72-1.616s-1.051-.608-1.744-.608c-.629 0-1.168.203-1.616.608-.448.395-.715.933-.8 1.616h4.88Zm8.147-3.76c.693 0 1.312.144 1.856.432.555.288.987.715 1.296 1.28.309.565.464 1.248.464 2.048v5.2h-1.808v-4.928c0-.789-.197-1.392-.592-1.808-.395-.427-.933-.64-1.616-.64s-1.227.213-1.632.64c-.395.416-.592 1.019-.592 1.808V152h-1.824v-8.816h1.824v1.008a3.033 3.033 0 0 1 1.136-.848 3.706 3.706 0 0 1 1.488-.304Zm9.143 9.104c-.694 0-1.318-.123-1.872-.368-.544-.256-.976-.597-1.296-1.024a2.588 2.588 0 0 1-.512-1.456h1.888c.032.373.208.688.528.944.33.245.741.368 1.232.368.512 0 .906-.096 1.184-.288.288-.203.432-.459.432-.768 0-.331-.16-.576-.48-.736-.31-.16-.806-.336-1.488-.528-.662-.181-1.2-.357-1.616-.528a2.902 2.902 0 0 1-1.088-.784c-.299-.352-.448-.816-.448-1.392 0-.469.138-.896.416-1.28.277-.395.672-.704 1.184-.928.522-.224 1.12-.336 1.792-.336 1.002 0 1.808.256 2.416.768.618.501.949 1.189.992 2.064h-1.824a1.3 1.3 0 0 0-.48-.944c-.288-.235-.678-.352-1.168-.352-.48 0-.848.091-1.104.272a.841.841 0 0 0-.384.72c0 .235.085.432.256.592.17.16.378.288.624.384.245.085.608.197 1.088.336.64.171 1.162.347 1.568.528.416.171.773.427 1.072.768.298.341.453.795.464 1.36 0 .501-.139.949-.416 1.344-.278.395-.672.704-1.184.928-.502.224-1.094.336-1.776.336Zm13.426-4.768c0 .331-.021.629-.064.896h-6.736c.054.704.315 1.269.784 1.696.47.427 1.046.64 1.728.64.982 0 1.675-.411 2.08-1.232h1.968a3.994 3.994 0 0 1-1.456 2c-.693.512-1.557.768-2.592.768-.842 0-1.6-.187-2.272-.56a4.185 4.185 0 0 1-1.568-1.6c-.373-.693-.56-1.493-.56-2.4 0-.907.182-1.701.544-2.384a3.942 3.942 0 0 1 1.552-1.6c.672-.373 1.44-.56 2.304-.56.832 0 1.574.181 2.224.544a3.828 3.828 0 0 1 1.52 1.536c.363.651.544 1.403.544 2.256Zm-1.904-.576c-.01-.672-.25-1.211-.72-1.616-.469-.405-1.05-.608-1.744-.608-.629 0-1.168.203-1.616.608-.448.395-.714.933-.8 1.616h4.88Zm3.091.752c0-.885.182-1.669.544-2.352a4.066 4.066 0 0 1 3.632-2.16c.576 0 1.142.128 1.696.384.566.245 1.014.576 1.344.992v-4.256h1.84V152h-1.84v-1.328c-.298.427-.714.779-1.248 1.056-.522.277-1.125.416-1.808.416a4.028 4.028 0 0 1-2.112-.576 4.288 4.288 0 0 1-1.504-1.632c-.362-.704-.544-1.499-.544-2.384Zm7.216.032c0-.608-.128-1.136-.384-1.584a2.58 2.58 0 0 0-.976-1.024 2.568 2.568 0 0 0-1.312-.352c-.469 0-.906.117-1.312.352a2.58 2.58 0 0 0-.992 1.008c-.245.437-.368.96-.368 1.568 0 .608.123 1.141.368 1.6.256.459.587.811.992 1.056a2.63 2.63 0 0 0 2.624 0 2.58 2.58 0 0 0 .976-1.024c.256-.459.384-.992.384-1.6Zm-56.317-32.996L76.487 87.993a1.65 1.65 0 0 1 0-2.34l6.75-6.758a1.648 1.648 0 0 1 2.333 0l17.602 17.498a1.657 1.657 0 0 0 2.34-.008l38.895-39.27a1.66 1.66 0 0 1 2.348-.008l6.757 6.758c.645.645.645 1.687.008 2.333l-42.375 42.757.007.008-5.587 5.617a1.664 1.664 0 0 1-2.34.008Z" fill="#056088"/><defs><filter id="a" x="0" y="0" width="228" height="228" filterUnits="userSpaceOnUse" color-interpolation-filters="sRGB"><feFlood flood-opacity="0" result="BackgroundImageFix"/><feColorMatrix in="SourceAlpha" values="0 0 0 0 0 0 0 0 0 0 0 0 0 0 0 0 0 0 127 0" result="hardAlpha"/><feOffset dy="8"/><feGaussianBlur stdDeviation="15"/><feComposite in2="hardAlpha" operator="out"/><feColorMatrix values="0 0 0 0 0.0196078 0 0 0 0 0.376471 0 0 0 0 0.533333 0 0 0 0.15 0"/><feBlend in2="BackgroundImageFix" result="effect1_dropShadow_22_805"/><feBlend in="SourceGraphic" in2="effect1_dropShadow_22_805" result="shape"/></filter></defs></svg>